<svg xmlns="http://www.w3.org/2000/svg" xmlns:xlink="http://www.w3.org/1999/xlink" width="516" zoomAndPan="magnify" viewBox="0 0 386.88 386.999991" height="516" preserveAspectRatio="xMidYMid meet" version="1.0"><defs><g/><clipPath id="326e8eff69"><path d="M 7.59375 2.644531 L 379.480469 2.644531 L 379.480469 168 L 7.59375 168 Z M 7.59375 2.644531 " clip-rule="nonzero"/></clipPath><clipPath id="dc3fb4e509"><path d="M 7.59375 83 L 196 83 L 196 384 L 7.59375 384 Z M 7.59375 83 " clip-rule="nonzero"/></clipPath><clipPath id="dc72183d39"><path d="M 191 83 L 379.480469 83 L 379.480469 384 L 191 384 Z M 191 83 " clip-rule="nonzero"/></clipPath></defs><path fill="#ffffff" d="M 9.757812 85.050781 L 193.472656 4.734375 L 377.1875 85.050781 L 193.472656 165.367188 Z M 9.757812 85.050781 " fill-opacity="1" fill-rule="evenodd"/><g clip-path="url(#326e8eff69)"><path fill="#11132e" d="M 9.003906 83.328125 L 192.710938 3.011719 C 193.210938 2.796875 193.75 2.8125 194.214844 3.019531 L 377.917969 83.328125 C 378.871094 83.742188 379.308594 84.851562 378.886719 85.804688 C 378.695312 86.253906 378.335938 86.589844 377.917969 86.773438 L 194.214844 167.085938 C 193.71875 167.304688 193.171875 167.289062 192.710938 167.085938 L 9.003906 86.773438 C 8.050781 86.359375 7.617188 85.253906 8.035156 84.300781 C 8.226562 83.847656 8.585938 83.511719 9.003906 83.328125 Z M 193.464844 6.792969 L 14.457031 85.046875 L 193.464844 163.308594 L 372.46875 85.046875 Z M 193.464844 6.792969 " fill-opacity="1" fill-rule="nonzero"/></g><path fill="#e33e4d" d="M 9.753906 85.046875 L 9.753906 301.726562 L 193.460938 382.039062 L 193.460938 165.359375 Z M 9.753906 85.046875 " fill-opacity="1" fill-rule="evenodd"/><g clip-path="url(#dc3fb4e509)"><path fill="#11132e" d="M 11.644531 87.929688 L 11.644531 300.5 L 191.574219 379.160156 L 191.574219 166.589844 Z M 7.871094 301.726562 L 7.871094 85.046875 C 7.875 84.800781 7.925781 84.546875 8.03125 84.300781 C 8.449219 83.34375 9.554688 82.910156 10.511719 83.328125 L 194.078125 163.578125 C 194.816406 163.832031 195.347656 164.539062 195.347656 165.359375 L 195.347656 382.039062 C 195.34375 382.285156 195.292969 382.546875 195.183594 382.789062 C 194.769531 383.742188 193.664062 384.175781 192.710938 383.765625 L 9.144531 303.511719 C 8.398438 303.253906 7.871094 302.554688 7.871094 301.726562 Z M 7.871094 301.726562 " fill-opacity="1" fill-rule="nonzero"/></g><path fill="#014aa9" d="M 377.167969 85.046875 L 377.167969 301.726562 L 193.460938 382.039062 L 193.460938 165.359375 Z M 377.167969 85.046875 " fill-opacity="1" fill-rule="evenodd"/><g clip-path="url(#dc72183d39)"><path fill="#11132e" d="M 379.046875 85.046875 L 379.054688 301.726562 C 379.054688 302.554688 378.519531 303.253906 377.78125 303.511719 L 194.214844 383.765625 C 193.261719 384.175781 192.152344 383.742188 191.738281 382.789062 C 191.628906 382.546875 191.578125 382.285156 191.578125 382.039062 L 191.574219 165.359375 C 191.574219 164.539062 192.101562 163.832031 192.847656 163.578125 L 376.414062 83.324219 C 377.367188 82.910156 378.476562 83.34375 378.886719 84.300781 C 379 84.542969 379.046875 84.800781 379.046875 85.046875 Z M 375.277344 300.5 L 375.277344 87.925781 L 195.347656 166.589844 L 195.347656 379.160156 Z M 375.277344 300.5 " fill-opacity="1" fill-rule="nonzero"/></g><path fill="#11132e" d="M 232.203125 85.046875 C 232.203125 85.589844 232.140625 86.132812 232.015625 86.671875 C 231.894531 87.210938 231.707031 87.746094 231.460938 88.277344 C 231.210938 88.808594 230.902344 89.332031 230.535156 89.851562 C 230.167969 90.371094 229.742188 90.878906 229.253906 91.378906 C 228.769531 91.878906 228.226562 92.371094 227.628906 92.847656 C 227.03125 93.324219 226.378906 93.789062 225.675781 94.242188 C 224.96875 94.691406 224.214844 95.125 223.410156 95.542969 C 222.605469 95.964844 221.753906 96.363281 220.855469 96.746094 C 219.957031 97.128906 219.019531 97.496094 218.039062 97.839844 C 217.058594 98.183594 216.039062 98.503906 214.984375 98.804688 C 213.929688 99.105469 212.84375 99.382812 211.722656 99.640625 C 210.605469 99.894531 209.457031 100.125 208.285156 100.335938 C 207.113281 100.542969 205.921875 100.722656 204.707031 100.882812 C 203.492188 101.039062 202.261719 101.171875 201.019531 101.277344 C 199.773438 101.382812 198.519531 101.460938 197.257812 101.515625 C 195.992188 101.566406 194.726562 101.59375 193.460938 101.59375 C 192.191406 101.59375 190.925781 101.566406 189.660156 101.515625 C 188.398438 101.460938 187.144531 101.382812 185.902344 101.277344 C 184.65625 101.171875 183.425781 101.039062 182.210938 100.882812 C 180.996094 100.722656 179.804688 100.542969 178.632812 100.335938 C 177.460938 100.125 176.3125 99.894531 175.195312 99.640625 C 174.074219 99.382812 172.988281 99.105469 171.933594 98.804688 C 170.878906 98.503906 169.859375 98.183594 168.878906 97.839844 C 167.898438 97.496094 166.960938 97.128906 166.0625 96.746094 C 165.164062 96.363281 164.3125 95.964844 163.507812 95.542969 C 162.703125 95.125 161.949219 94.691406 161.242188 94.242188 C 160.539062 93.789062 159.886719 93.324219 159.289062 92.847656 C 158.691406 92.371094 158.148438 91.878906 157.664062 91.378906 C 157.179688 90.878906 156.75 90.371094 156.382812 89.851562 C 156.015625 89.332031 155.707031 88.808594 155.457031 88.277344 C 155.210938 87.746094 155.023438 87.210938 154.902344 86.671875 C 154.777344 86.132812 154.714844 85.589844 154.714844 85.046875 C 154.714844 84.507812 154.777344 83.964844 154.902344 83.425781 C 155.023438 82.886719 155.210938 82.351562 155.457031 81.820312 C 155.707031 81.289062 156.015625 80.765625 156.382812 80.246094 C 156.75 79.726562 157.179688 79.21875 157.664062 78.71875 C 158.148438 78.214844 158.691406 77.726562 159.289062 77.25 C 159.886719 76.769531 160.539062 76.308594 161.242188 75.855469 C 161.949219 75.40625 162.703125 74.972656 163.507812 74.550781 C 164.3125 74.132812 165.164062 73.734375 166.0625 73.347656 C 166.960938 72.964844 167.898438 72.601562 168.878906 72.257812 C 169.859375 71.914062 170.878906 71.59375 171.933594 71.292969 C 172.988281 70.992188 174.074219 70.710938 175.195312 70.457031 C 176.3125 70.203125 177.460938 69.96875 178.632812 69.761719 C 179.804688 69.554688 180.996094 69.375 182.210938 69.214844 C 183.425781 69.058594 184.65625 68.925781 185.902344 68.820312 C 187.144531 68.714844 188.398438 68.636719 189.660156 68.582031 C 190.925781 68.53125 192.191406 68.503906 193.460938 68.503906 C 194.726562 68.503906 195.992188 68.53125 197.257812 68.582031 C 198.519531 68.636719 199.773438 68.714844 201.019531 68.820312 C 202.261719 68.925781 203.492188 69.058594 204.707031 69.214844 C 205.921875 69.375 207.113281 69.554688 208.285156 69.761719 C 209.457031 69.96875 210.605469 70.203125 211.722656 70.457031 C 212.84375 70.710938 213.929688 70.992188 214.984375 71.292969 C 216.039062 71.59375 217.058594 71.914062 218.039062 72.257812 C 219.019531 72.601562 219.957031 72.964844 220.855469 73.347656 C 221.753906 73.734375 222.605469 74.132812 223.410156 74.550781 C 224.214844 74.972656 224.96875 75.40625 225.675781 75.855469 C 226.378906 76.308594 227.03125 76.769531 227.628906 77.25 C 228.226562 77.726562 228.769531 78.214844 229.253906 78.71875 C 229.742188 79.21875 230.167969 79.726562 230.535156 80.246094 C 230.902344 80.765625 231.210938 81.289062 231.460938 81.820312 C 231.707031 82.351562 231.894531 82.886719 232.015625 83.425781 C 232.140625 83.964844 232.203125 84.507812 232.203125 85.046875 Z M 232.203125 85.046875 " fill-opacity="1" fill-rule="nonzero"/><path fill="#11132e" d="M 244.511719 261.503906 C 254.695312 261.503906 262.953125 274.65625 262.953125 290.875 C 262.953125 307.09375 254.695312 320.246094 244.511719 320.246094 C 234.324219 320.246094 226.070312 307.09375 226.070312 290.875 C 226.070312 274.65625 234.324219 261.503906 244.511719 261.503906 Z M 326.117188 146.839844 C 336.300781 146.839844 344.558594 159.992188 344.558594 176.210938 C 344.558594 192.433594 336.300781 205.582031 326.117188 205.582031 C 315.933594 205.582031 307.675781 192.433594 307.675781 176.210938 C 307.675781 159.992188 315.933594 146.839844 326.117188 146.839844 Z M 285.3125 204.171875 C 295.5 204.171875 303.757812 217.320312 303.757812 233.546875 C 303.757812 249.765625 295.5 262.917969 285.3125 262.917969 C 275.125 262.917969 266.871094 249.765625 266.871094 233.546875 C 266.871094 217.320312 275.125 204.171875 285.3125 204.171875 Z M 285.3125 204.171875 " fill-opacity="1" fill-rule="evenodd"/><path fill="#11132e" d="M 52.363281 126.34375 C 62.546875 126.34375 70.804688 139.496094 70.804688 155.714844 C 70.804688 171.933594 62.546875 185.085938 52.363281 185.085938 C 42.179688 185.085938 33.917969 171.933594 33.917969 155.714844 C 33.917969 139.496094 42.179688 126.34375 52.363281 126.34375 Z M 99.9375 198.464844 C 110.121094 198.464844 118.378906 211.617188 118.378906 227.835938 C 118.378906 244.054688 110.121094 257.207031 99.9375 257.207031 C 89.753906 257.207031 81.496094 244.054688 81.496094 227.835938 C 81.496094 211.617188 89.753906 198.464844 99.9375 198.464844 Z M 150.855469 282.003906 C 161.042969 282.003906 169.296875 295.152344 169.296875 311.371094 C 169.296875 327.59375 161.042969 340.742188 150.855469 340.742188 C 140.671875 340.742188 132.414062 327.59375 132.414062 311.371094 C 132.414062 295.152344 140.671875 282.003906 150.855469 282.003906 Z M 52.363281 238.890625 C 62.546875 238.890625 70.804688 252.042969 70.804688 268.261719 C 70.804688 284.480469 62.546875 297.632812 52.363281 297.632812 C 42.179688 297.632812 33.917969 284.480469 33.917969 268.261719 C 33.917969 252.042969 42.179688 238.890625 52.363281 238.890625 Z M 150.855469 169.941406 C 161.042969 169.941406 169.296875 183.089844 169.296875 199.308594 C 169.296875 215.53125 161.042969 228.679688 150.855469 228.679688 C 140.671875 228.679688 132.414062 215.53125 132.414062 199.308594 C 132.414062 183.089844 140.671875 169.941406 150.855469 169.941406 Z M 150.855469 169.941406 " fill-opacity="1" fill-rule="evenodd"/><g fill="#11132e" fill-opacity="1"><g transform="translate(141.242958, 207.85471)"><g><path d="M 9.84375 0.359375 C 8.457031 0.359375 7.359375 -0.03125 6.546875 -0.8125 C 5.742188 -1.59375 5.34375 -2.628906 5.34375 -3.921875 C 5.34375 -5.191406 5.742188 -6.234375 6.546875 -7.046875 C 7.359375 -7.859375 8.457031 -8.265625 9.84375 -8.265625 C 11.257812 -8.265625 12.367188 -7.875 13.171875 -7.09375 C 13.984375 -6.320312 14.390625 -5.285156 14.390625 -3.984375 C 14.390625 -2.691406 13.976562 -1.644531 13.15625 -0.84375 C 12.34375 -0.0390625 11.238281 0.359375 9.84375 0.359375 Z M 9.84375 0.359375 "/></g></g></g></svg>